<?xml version="1.0" encoding="utf-8"?>
<!-- Generator: Adobe Illustrator 24.1.1, SVG Export Plug-In . SVG Version: 6.00 Build 0)  -->
<svg version="1.1" xmlns="http://www.w3.org/2000/svg" xmlns:xlink="http://www.w3.org/1999/xlink" x="0px" y="0px"
	 viewBox="0 0 283.5 141.7" style="enable-background:new 0 0 283.5 141.7;" xml:space="preserve">
<style type="text/css">
	.st0{fill:#FFFFFF;stroke:#000000;stroke-miterlimit:10;}
	.st1{fill:#FFFFFF;stroke:#2E3192;stroke-miterlimit:10;}
	.st2{fill:none;stroke:#000000;stroke-miterlimit:10;}
	.st3{fill:none;stroke:#2E3192;stroke-miterlimit:10;}
	.st4{fill:none;}
	.st5{fill:#ED1C24;}
	.st6{font-family:'CenturyGothic-Bold';}
	.st7{font-size:12px;}
</style>
<g id="Layer_1">
	<path class="st0" d="M227.6,18.2h-18.4v4.3h-5.7v-4.3h-65.2v4.3h-5.7v-4.3H67.4v4.3h-5.7v-4.3H43.4c-3.1,0-5.7,2.5-5.7,5.7v91.3
		c0,3.1,2.5,5.7,5.7,5.7h18.4v-4.3h5.7v4.3h65.2v-4.3h5.7v4.3h65.2v-4.3h5.7v4.3h18.4c3.1,0,5.7-2.5,5.7-5.7V23.9
		C233.3,20.8,230.7,18.2,227.6,18.2z"/>
	<circle class="st0" cx="58.2" cy="52.8" r="9.2"/>
	<circle class="st0" cx="58.2" cy="91.7" r="9.2"/>
	<circle class="st0" cx="203.5" cy="72.6" r="11.3"/>
</g>
<g id="Layer_2">
	<path class="st1" d="M173.7,93.9h-85c-1.6,0-2.8-1.3-2.8-2.8V54.2c0-1.6,1.3-2.8,2.8-2.8h85c1.6,0,2.8,1.3,2.8,2.8v36.9
		C176.6,92.6,175.3,93.9,173.7,93.9z"/>
	<path class="st2" d="M104.4,120.8"/>
	<path class="st2" d="M104.4,93.9"/>
</g>
<g id="Layer_3">
	<rect x="95.8" y="32.4" class="st3" width="11.3" height="4.3"/>
	<rect x="152.5" y="32.4" class="st3" width="11.3" height="4.3"/>
	<path class="st2" d="M99.3,32.4"/>
	<path class="st2" d="M99.3,18.2"/>
</g>
<g id="Layer_4">
	<rect x="42" y="63.8" class="st4" width="32.4" height="10.2"/>
	<text transform="matrix(1 0 0 1 43.9536 72.6403)" class="st5 st6 st7">View</text>
	<rect x="42" y="102.6" class="st4" width="32.4" height="10.2"/>
	<text transform="matrix(1 0 0 1 49.4731 111.4063)" class="st5 st6 st7">Set</text>
	<rect x="85.2" y="38.5" class="st4" width="32.4" height="10.2"/>
	<text transform="matrix(1 0 0 1 92.1038 47.2898)" class="st5 st6 st7">CC</text>
	<rect x="183.4" y="86.6" class="st4" width="40.3" height="10.2"/>
	<text transform="matrix(1 0 0 1 183.7124 95.4722)" class="st5 st6 st7">On/Off</text>
	<rect x="138" y="38.5" class="st4" width="40.3" height="10.2"/>
	<text transform="matrix(1 0 0 1 148.6764 47.2898)" class="st5 st6 st7">ON</text>
	<rect x="99.3" y="99" class="st4" width="72.4" height="10.2"/>
	<text transform="matrix(1 0 0 1 99.5974 107.7911)" class="st5 st6 st7">Jerry de Vos </text>
</g>
</svg>
